# xmcd
#
# Track frame offsets: 
#        150
#        10886
#        23315
#        41224
#        50571
#        62329
#        74507
#        88965
#        100327
#        108466
#
# Disc length: 1627 seconds
#
# Revision: 0
# Processed by: cddbd v1.5.2PL0 Copyright (c) Steve Scherf et al.
# Submitted via: ExactAudioCopy v0.95b4
#
DISCID=8106590a
DTITLE=Willie Nelson - Willie Nelson Disc 3
DYEAR=2005
DGENRE=Classic Country
TTITLE0=Touch Me (Live)
TTITLE1=Shelter of My Arms
TTITLE2=Crazy
TTITLE3=One Step Beyond
TTITLE4=I Hope So
TTITLE5=Ten With a Two
TTITLE6=Will You Remember Mine
TTITLE7=Is There Something On Your Mind
TTITLE8=Things To Remember
TTITLE9=You'll Always Have Someone
EXTD=
EXTT0=
EXTT1=
EXTT2=
EXTT3=
EXTT4=
EXTT5=
EXTT6=
EXTT7=
EXTT8=
EXTT9=
PLAYORDER=
